<mxfile host="Electron" modified="2023-09-28T15:59:24.134Z" agent="Mozilla/5.0 (Windows NT 10.0; Win64; x64) AppleWebKit/537.36 (KHTML, like Gecko) draw.io/22.0.0 Chrome/114.0.5735.289 Electron/25.8.3 Safari/537.36" etag="DBO9ySkfyVs10Cl5CDan" version="22.0.0" type="device">
  <diagram name="Página-1" id="ObDRaUBSzeTK9pJ8ysg3">
    <mxGraphModel dx="1418" dy="789" grid="1" gridSize="10" guides="1" tooltips="1" connect="1" arrows="1" fold="1" page="1" pageScale="1" pageWidth="827" pageHeight="1169" math="0" shadow="0">
      <root>
        <mxCell id="0" />
        <mxCell id="1" parent="0" />
        <mxCell id="Ch8au0vMP9AHQOmBCMOn-21" value="" style="edgeStyle=orthogonalEdgeStyle;rounded=0;orthogonalLoop=1;jettySize=auto;html=1;" edge="1" parent="1" source="Ch8au0vMP9AHQOmBCMOn-1" target="Ch8au0vMP9AHQOmBCMOn-2">
          <mxGeometry relative="1" as="geometry" />
        </mxCell>
        <mxCell id="Ch8au0vMP9AHQOmBCMOn-1" value="inicio&amp;nbsp;" style="ellipse;whiteSpace=wrap;html=1;fillColor=#0050ef;fontColor=#ffffff;strokeColor=#001DBC;" vertex="1" parent="1">
          <mxGeometry x="350" y="30" width="120" height="80" as="geometry" />
        </mxCell>
        <mxCell id="Ch8au0vMP9AHQOmBCMOn-20" value="" style="edgeStyle=orthogonalEdgeStyle;rounded=0;orthogonalLoop=1;jettySize=auto;html=1;" edge="1" parent="1" source="Ch8au0vMP9AHQOmBCMOn-2" target="Ch8au0vMP9AHQOmBCMOn-3">
          <mxGeometry relative="1" as="geometry">
            <Array as="points">
              <mxPoint x="410" y="230" />
              <mxPoint x="410" y="230" />
            </Array>
          </mxGeometry>
        </mxCell>
        <mxCell id="Ch8au0vMP9AHQOmBCMOn-2" value="suma = 0&lt;br&gt;acumulador = 0" style="rounded=0;whiteSpace=wrap;html=1;fillColor=#60a917;fontColor=#ffffff;strokeColor=#2D7600;" vertex="1" parent="1">
          <mxGeometry x="350" y="140" width="120" height="60" as="geometry" />
        </mxCell>
        <mxCell id="Ch8au0vMP9AHQOmBCMOn-10" value="" style="edgeStyle=orthogonalEdgeStyle;rounded=0;orthogonalLoop=1;jettySize=auto;html=1;" edge="1" parent="1" source="Ch8au0vMP9AHQOmBCMOn-3" target="Ch8au0vMP9AHQOmBCMOn-4">
          <mxGeometry relative="1" as="geometry">
            <Array as="points">
              <mxPoint x="410" y="320" />
              <mxPoint x="410" y="320" />
            </Array>
          </mxGeometry>
        </mxCell>
        <mxCell id="Ch8au0vMP9AHQOmBCMOn-3" value="escribir &quot;inctroduce un numero &quot;" style="shape=parallelogram;perimeter=parallelogramPerimeter;whiteSpace=wrap;html=1;fixedSize=1;fillColor=#1ba1e2;fontColor=#ffffff;strokeColor=#006EAF;" vertex="1" parent="1">
          <mxGeometry x="310" y="240" width="220" height="60" as="geometry" />
        </mxCell>
        <mxCell id="Ch8au0vMP9AHQOmBCMOn-11" value="" style="edgeStyle=orthogonalEdgeStyle;rounded=0;orthogonalLoop=1;jettySize=auto;html=1;" edge="1" parent="1" target="Ch8au0vMP9AHQOmBCMOn-5">
          <mxGeometry relative="1" as="geometry">
            <mxPoint x="405" y="490" as="sourcePoint" />
            <Array as="points">
              <mxPoint x="405" y="500" />
              <mxPoint x="405" y="500" />
            </Array>
          </mxGeometry>
        </mxCell>
        <mxCell id="Ch8au0vMP9AHQOmBCMOn-19" value="" style="edgeStyle=orthogonalEdgeStyle;rounded=0;orthogonalLoop=1;jettySize=auto;html=1;" edge="1" parent="1" source="Ch8au0vMP9AHQOmBCMOn-4" target="Ch8au0vMP9AHQOmBCMOn-18">
          <mxGeometry relative="1" as="geometry">
            <Array as="points">
              <mxPoint x="410" y="400" />
              <mxPoint x="410" y="400" />
            </Array>
          </mxGeometry>
        </mxCell>
        <mxCell id="Ch8au0vMP9AHQOmBCMOn-4" value="leer num" style="shape=parallelogram;perimeter=parallelogramPerimeter;whiteSpace=wrap;html=1;fixedSize=1;fillColor=#1ba1e2;fontColor=#ffffff;strokeColor=#006EAF;" vertex="1" parent="1">
          <mxGeometry x="360" y="330" width="120" height="60" as="geometry" />
        </mxCell>
        <mxCell id="Ch8au0vMP9AHQOmBCMOn-12" style="edgeStyle=orthogonalEdgeStyle;rounded=0;orthogonalLoop=1;jettySize=auto;html=1;exitX=0;exitY=0.5;exitDx=0;exitDy=0;entryX=0.5;entryY=0;entryDx=0;entryDy=0;" edge="1" parent="1" source="Ch8au0vMP9AHQOmBCMOn-5" target="Ch8au0vMP9AHQOmBCMOn-6">
          <mxGeometry relative="1" as="geometry" />
        </mxCell>
        <mxCell id="Ch8au0vMP9AHQOmBCMOn-5" value="respuesta == &quot;s&quot;" style="rhombus;whiteSpace=wrap;html=1;fillColor=#d80073;fontColor=#ffffff;strokeColor=#A50040;" vertex="1" parent="1">
          <mxGeometry x="330" y="730" width="150" height="80" as="geometry" />
        </mxCell>
        <mxCell id="Ch8au0vMP9AHQOmBCMOn-17" style="edgeStyle=orthogonalEdgeStyle;rounded=0;orthogonalLoop=1;jettySize=auto;html=1;exitX=0.5;exitY=1;exitDx=0;exitDy=0;entryX=0;entryY=0.5;entryDx=0;entryDy=0;" edge="1" parent="1" source="Ch8au0vMP9AHQOmBCMOn-6" target="Ch8au0vMP9AHQOmBCMOn-9">
          <mxGeometry relative="1" as="geometry" />
        </mxCell>
        <mxCell id="Ch8au0vMP9AHQOmBCMOn-6" value="Escribir suma / acumulador&amp;nbsp;" style="shape=parallelogram;perimeter=parallelogramPerimeter;whiteSpace=wrap;html=1;fixedSize=1;fillColor=#1ba1e2;fontColor=#ffffff;strokeColor=#006EAF;" vertex="1" parent="1">
          <mxGeometry x="220" y="810" width="120" height="60" as="geometry" />
        </mxCell>
        <mxCell id="Ch8au0vMP9AHQOmBCMOn-9" value="FIN" style="ellipse;whiteSpace=wrap;html=1;fillColor=#0050ef;fontColor=#ffffff;strokeColor=#001DBC;" vertex="1" parent="1">
          <mxGeometry x="345" y="910" width="120" height="80" as="geometry" />
        </mxCell>
        <mxCell id="Ch8au0vMP9AHQOmBCMOn-15" value="no" style="text;html=1;strokeColor=none;fillColor=none;align=center;verticalAlign=middle;whiteSpace=wrap;rounded=0;" vertex="1" parent="1">
          <mxGeometry x="290" y="740" width="60" height="30" as="geometry" />
        </mxCell>
        <mxCell id="Ch8au0vMP9AHQOmBCMOn-24" style="edgeStyle=orthogonalEdgeStyle;rounded=0;orthogonalLoop=1;jettySize=auto;html=1;exitX=0;exitY=1;exitDx=0;exitDy=0;entryX=1;entryY=0.5;entryDx=0;entryDy=0;" edge="1" parent="1" source="Ch8au0vMP9AHQOmBCMOn-16" target="Ch8au0vMP9AHQOmBCMOn-3">
          <mxGeometry relative="1" as="geometry">
            <Array as="points">
              <mxPoint x="710" y="770" />
              <mxPoint x="710" y="270" />
            </Array>
          </mxGeometry>
        </mxCell>
        <mxCell id="Ch8au0vMP9AHQOmBCMOn-16" value="si" style="text;html=1;strokeColor=none;fillColor=none;align=center;verticalAlign=middle;whiteSpace=wrap;rounded=0;" vertex="1" parent="1">
          <mxGeometry x="480" y="740" width="60" height="30" as="geometry" />
        </mxCell>
        <mxCell id="Ch8au0vMP9AHQOmBCMOn-18" value="suma = suma+num&lt;br&gt;acumulador = acumulador + 1" style="whiteSpace=wrap;html=1;fillColor=#60a917;fontColor=#ffffff;strokeColor=#2D7600;" vertex="1" parent="1">
          <mxGeometry x="350" y="430" width="120" height="60" as="geometry" />
        </mxCell>
        <mxCell id="Ch8au0vMP9AHQOmBCMOn-22" value="Escribir &quot;has introducido&quot; + acumulador + &quot;valores&quot;&lt;br&gt;Escribir &quot;la suma actual de los valores es&quot; + suma&amp;nbsp;&lt;br&gt;&lt;b&gt;Escribir &quot;¿Desea escribir otro numero?&quot; s/n&lt;/b&gt;" style="shape=parallelogram;perimeter=parallelogramPerimeter;whiteSpace=wrap;html=1;fixedSize=1;fillColor=#1ba1e2;fontColor=#ffffff;strokeColor=#006EAF;" vertex="1" parent="1">
          <mxGeometry x="190" y="550" width="460" height="60" as="geometry" />
        </mxCell>
        <mxCell id="Ch8au0vMP9AHQOmBCMOn-23" value="leer respuesta" style="shape=parallelogram;perimeter=parallelogramPerimeter;whiteSpace=wrap;html=1;fixedSize=1;fillColor=#1ba1e2;fontColor=#ffffff;strokeColor=#006EAF;" vertex="1" parent="1">
          <mxGeometry x="345" y="640" width="120" height="60" as="geometry" />
        </mxCell>
      </root>
    </mxGraphModel>
  </diagram>
</mxfile>
